<svg id="Capa_1" enable-background="new 0 0 512 512" height="512" viewBox="0 0 512 512" width="512" xmlns="http://www.w3.org/2000/svg"><g><g><path d="m7.5 227.323c4.143 0 7.5-3.358 7.5-7.5v-138.485c0-6.893 5.607-12.5 12.5-12.5h81.52v307.122c0 20.678 16.822 37.5 37.5 37.5h52.589c20.678 0 37.5-16.822 37.5-37.5v-338.46c0-20.678-16.822-37.5-37.5-37.5h-52.589c-20.678 0-37.5 16.822-37.5 37.5v16.338h-81.52c-15.163 0-27.5 12.336-27.5 27.5v138.484c0 4.143 3.357 7.501 7.5 7.501zm116.52-189.823c0-12.407 10.094-22.5 22.5-22.5h52.589c12.406 0 22.5 10.093 22.5 22.5v338.46c0 12.407-10.094 22.5-22.5 22.5h-52.589c-12.406 0-22.5-10.093-22.5-22.5z"/><path d="m484.5 53.838h-210.88c-4.143 0-7.5 3.358-7.5 7.5s3.357 7.5 7.5 7.5h210.88c6.893 0 12.5 5.607 12.5 12.5v365.194h-482v-182.172c0-4.142-3.357-7.5-7.5-7.5s-7.5 3.358-7.5 7.5v220.14c0 15.164 12.336 27.5 27.5 27.5h295.12c4.143 0 7.5-3.358 7.5-7.5s-3.357-7.5-7.5-7.5h-295.12c-6.893 0-12.5-5.607-12.5-12.5v-22.968h482v22.968c0 6.893-5.607 12.5-12.5 12.5h-119.99c-4.143 0-7.5 3.358-7.5 7.5s3.357 7.5 7.5 7.5h119.99c15.164 0 27.5-12.336 27.5-27.5v-403.162c0-15.163-12.336-27.5-27.5-27.5z"/><path d="m283.62 192.46h161.78c9.649 0 17.5-7.851 17.5-17.5v-52.338c0-9.649-7.851-17.5-17.5-17.5h-161.78c-9.649 0-17.5 7.851-17.5 17.5v52.338c0 9.649 7.851 17.5 17.5 17.5zm-2.5-69.838c0-1.378 1.121-2.5 2.5-2.5h161.78c1.379 0 2.5 1.122 2.5 2.5v52.338c0 1.378-1.121 2.5-2.5 2.5h-161.78c-1.379 0-2.5-1.122-2.5-2.5z"/><path d="m283.62 267.303h19.98c9.649 0 17.5-7.851 17.5-17.5v-19.98c0-9.649-7.851-17.5-17.5-17.5h-19.98c-9.649 0-17.5 7.851-17.5 17.5v19.98c0 9.649 7.851 17.5 17.5 17.5zm-2.5-37.48c0-1.378 1.121-2.5 2.5-2.5h19.98c1.379 0 2.5 1.122 2.5 2.5v19.98c0 1.378-1.121 2.5-2.5 2.5h-19.98c-1.379 0-2.5-1.122-2.5-2.5z"/><path d="m392 229.823c0-9.649-7.851-17.5-17.5-17.5h-19.98c-9.649 0-17.5 7.851-17.5 17.5v19.98c0 9.649 7.851 17.5 17.5 17.5h19.98c9.649 0 17.5-7.851 17.5-17.5zm-15 19.98c0 1.378-1.121 2.5-2.5 2.5h-19.98c-1.379 0-2.5-1.122-2.5-2.5v-19.98c0-1.378 1.121-2.5 2.5-2.5h19.98c1.379 0 2.5 1.122 2.5 2.5z"/><path d="m462.9 229.823c0-9.649-7.851-17.5-17.5-17.5h-19.98c-9.649 0-17.5 7.851-17.5 17.5v19.98c0 9.649 7.851 17.5 17.5 17.5h19.98c9.649 0 17.5-7.851 17.5-17.5zm-15 19.98c0 1.378-1.121 2.5-2.5 2.5h-19.98c-1.379 0-2.5-1.122-2.5-2.5v-19.98c0-1.378 1.121-2.5 2.5-2.5h19.98c1.379 0 2.5 1.122 2.5 2.5z"/><path d="m283.62 340.381h19.98c9.649 0 17.5-7.851 17.5-17.5v-19.98c0-9.649-7.851-17.5-17.5-17.5h-19.98c-9.649 0-17.5 7.851-17.5 17.5v19.98c0 9.65 7.851 17.5 17.5 17.5zm-2.5-37.48c0-1.378 1.121-2.5 2.5-2.5h19.98c1.379 0 2.5 1.122 2.5 2.5v19.98c0 1.378-1.121 2.5-2.5 2.5h-19.98c-1.379 0-2.5-1.122-2.5-2.5z"/><path d="m392 302.901c0-9.649-7.851-17.5-17.5-17.5h-19.98c-9.649 0-17.5 7.851-17.5 17.5v19.98c0 9.649 7.851 17.5 17.5 17.5h19.98c9.649 0 17.5-7.851 17.5-17.5zm-15 19.98c0 1.378-1.121 2.5-2.5 2.5h-19.98c-1.379 0-2.5-1.122-2.5-2.5v-19.98c0-1.378 1.121-2.5 2.5-2.5h19.98c1.379 0 2.5 1.122 2.5 2.5z"/><path d="m462.9 302.901c0-9.649-7.851-17.5-17.5-17.5h-19.98c-9.649 0-17.5 7.851-17.5 17.5v19.98c0 9.649 7.851 17.5 17.5 17.5h19.98c9.649 0 17.5-7.851 17.5-17.5zm-15 19.98c0 1.378-1.121 2.5-2.5 2.5h-19.98c-1.379 0-2.5-1.122-2.5-2.5v-19.98c0-1.378 1.121-2.5 2.5-2.5h19.98c1.379 0 2.5 1.122 2.5 2.5z"/><path d="m283.62 413.46h19.98c9.649 0 17.5-7.851 17.5-17.5v-19.98c0-9.649-7.851-17.5-17.5-17.5h-19.98c-9.649 0-17.5 7.851-17.5 17.5v19.98c0 9.649 7.851 17.5 17.5 17.5zm-2.5-37.48c0-1.378 1.121-2.5 2.5-2.5h19.98c1.379 0 2.5 1.122 2.5 2.5v19.98c0 1.378-1.121 2.5-2.5 2.5h-19.98c-1.379 0-2.5-1.122-2.5-2.5z"/><path d="m374.5 358.48h-19.98c-9.649 0-17.5 7.851-17.5 17.5v19.98c0 9.649 7.851 17.5 17.5 17.5h19.98c9.649 0 17.5-7.851 17.5-17.5v-19.98c0-9.649-7.851-17.5-17.5-17.5zm2.5 37.48c0 1.378-1.121 2.5-2.5 2.5h-19.98c-1.379 0-2.5-1.122-2.5-2.5v-19.98c0-1.378 1.121-2.5 2.5-2.5h19.98c1.379 0 2.5 1.122 2.5 2.5z"/><path d="m445.4 358.48h-19.98c-9.649 0-17.5 7.851-17.5 17.5v19.98c0 9.649 7.851 17.5 17.5 17.5h19.98c9.649 0 17.5-7.851 17.5-17.5v-19.98c0-9.649-7.85-17.5-17.5-17.5zm2.5 37.48c0 1.378-1.121 2.5-2.5 2.5h-19.98c-1.379 0-2.5-1.122-2.5-2.5v-19.98c0-1.378 1.121-2.5 2.5-2.5h19.98c1.379 0 2.5 1.122 2.5 2.5z"/><path d="m35.9 136.192c0 14.279 11.616 25.895 25.895 25.895s25.895-11.616 25.895-25.895c0-14.278-11.616-25.895-25.895-25.895s-25.895 11.617-25.895 25.895zm36.789 0c0 6.007-4.888 10.895-10.895 10.895s-10.894-4.887-10.894-10.895 4.888-10.895 10.895-10.895 10.894 4.888 10.894 10.895z"/><path d="m406.4 162.087h13.18c4.143 0 7.5-3.358 7.5-7.5s-3.357-7.5-7.5-7.5h-13.18c-4.143 0-7.5 3.358-7.5 7.5s3.358 7.5 7.5 7.5z"/><path d="m357.92 162.087h13.18c4.143 0 7.5-3.358 7.5-7.5s-3.357-7.5-7.5-7.5h-13.18c-4.143 0-7.5 3.358-7.5 7.5s3.357 7.5 7.5 7.5z"/><path d="m309.44 162.087h13.18c4.143 0 7.5-3.358 7.5-7.5s-3.357-7.5-7.5-7.5h-13.18c-4.143 0-7.5 3.358-7.5 7.5s3.358 7.5 7.5 7.5z"/></g></g></svg>